<svg width="101" height="102" viewBox="0 0 101 102" fill="none" xmlns="http://www.w3.org/2000/svg">
<path d="M51.1755 0.864804C46.9707 0.797102 42.7741 1.25628 38.6835 2.23162L44.3238 25.8872C46.4392 25.3828 48.6095 25.1453 50.784 25.1803L51.1755 0.864804Z" fill="#929292"/>
<path d="M39.7299 1.99387C31.9728 3.6696 24.7216 7.15468 18.5672 12.165C12.4128 17.1754 7.52955 23.5691 4.31546 30.8251C1.10137 38.0811 -0.352563 45.994 0.0721904 53.9186C0.496944 61.8432 2.78836 69.5553 6.75964 76.4261L27.8144 64.2567C25.7607 60.7035 24.5757 56.7152 24.356 52.617C24.1364 48.5188 24.8883 44.4267 26.5504 40.6743C28.2126 36.9218 30.738 33.6153 33.9207 31.0242C37.1034 28.4331 40.8534 26.6308 44.8649 25.7642L39.7299 1.99387Z" fill="#FFD941"/>
<path d="M6.48426 75.9436C10.8286 83.6549 17.1283 90.0853 24.7489 94.5869C32.3695 99.0885 41.0419 101.502 49.8924 101.585C58.7429 101.668 67.4589 99.4176 75.1626 95.0597C82.8663 90.7018 89.2856 84.3907 93.7737 76.7621C98.2619 69.1336 100.66 60.457 100.728 51.6064C100.795 42.7557 98.529 34.0436 94.1576 26.3477C89.7861 18.6517 83.4637 12.2436 75.8272 7.76887C68.1908 3.29418 59.51 0.91091 50.6593 0.859138L50.517 25.1774C55.0941 25.2042 59.5834 26.4367 63.5326 28.7508C67.4817 31.0648 70.7514 34.3788 73.012 38.3587C75.2728 42.3387 76.4447 46.8441 76.4099 51.4212C76.375 55.9983 75.1346 60.4854 72.8136 64.4305C70.4925 68.3755 67.1728 71.6393 63.1889 73.893C59.2049 76.1467 54.6974 77.3107 50.1204 77.2677C45.5434 77.2248 41.0585 75.9765 37.1175 73.6485C33.1766 71.3205 29.9187 67.9951 27.672 64.0071L6.48426 75.9436Z" fill="#FF3A28"/>
</svg>
