<svg width="101" height="102" viewBox="0 0 101 102" fill="none" xmlns="http://www.w3.org/2000/svg">
<path d="M51.1755 0.567562C38.2755 0.359855 25.7877 5.11058 16.2876 13.8399L32.7418 31.7469C37.6547 27.2325 44.1128 24.7757 50.784 24.8831L51.1755 0.567562Z" fill="#929292"/>
<path d="M0.153143 47.0011C-0.642294 57.1779 1.67342 67.3562 6.7934 76.1872C11.9134 85.0182 19.5959 92.085 28.823 96.451L39.2244 74.469C34.4527 72.2111 30.4797 68.5565 27.8319 63.9896C25.1841 59.4227 23.9865 54.159 24.3979 48.8961L0.153143 47.0011Z" fill="#55DE43"/>
<path d="M17.2632 12.9666C12.2784 17.3135 8.19851 22.5997 5.2566 28.5234C2.31469 34.4471 0.568343 40.8922 0.117267 47.4908L24.3793 49.1493C24.6126 45.7369 25.5157 42.4038 27.0371 39.3404C28.5585 36.277 30.6684 33.5432 33.2463 31.2952L17.2632 12.9666Z" fill="#2F5CF1"/>
<path d="M28.0789 96.0914C34.3743 99.1977 41.2497 100.954 48.2637 101.247C55.2777 101.539 62.2755 100.363 68.808 97.7919C75.3405 95.2212 81.2634 91.3132 86.1967 86.3187C91.13 81.3242 94.9646 75.3536 97.4547 68.7899L74.7171 60.1641C73.4294 63.5585 71.4463 66.6462 68.8951 69.2291C66.3439 71.812 63.2808 73.833 59.9026 75.1624C56.5243 76.4919 52.9054 77.1004 49.2781 76.949C45.6509 76.7975 42.0953 75.8895 38.8396 74.283L28.0789 96.0914Z" fill="#FF41F2"/>
<path d="M97.355 69.0507C100.294 61.4318 101.336 53.2127 100.391 45.1015C99.4471 36.9903 96.5447 29.2304 91.9343 22.4904C87.3239 15.7505 81.1438 10.2326 73.9266 6.4124C66.7093 2.59216 58.6714 0.584104 50.5055 0.561279L50.4375 24.8799C54.6605 24.8917 58.8173 25.9301 62.5497 27.9058C66.282 29.8814 69.4781 32.7349 71.8623 36.2205C74.2466 39.706 75.7476 43.7191 76.2359 47.9137C76.7243 52.1084 76.1854 56.3589 74.6656 60.299L97.355 69.0507Z" fill="#FF8928"/>
</svg>
