<svg width="101" height="102" viewBox="0 0 101 102" fill="none" xmlns="http://www.w3.org/2000/svg">
<path d="M51.1755 0.861996C42.9746 0.729951 34.8655 2.60277 27.5531 6.31767L38.5677 27.9989C42.3493 26.0778 46.5429 25.1093 50.784 25.1775L51.1755 0.861996Z" fill="#929292"/>
<path d="M27.8726 6.15677C21.3869 9.39393 15.6763 13.993 11.1311 19.6396C6.58589 25.2863 3.31312 31.8476 1.53638 38.8752L25.1132 44.836C26.0321 41.2017 27.7246 37.8085 30.0751 34.8884C32.4257 31.9682 35.3789 29.5898 38.7329 27.9157L27.8726 6.15677Z" fill="#2E31FF"/>
<path d="M1.69173 38.2762C-0.619076 46.9655 -0.561591 56.115 1.85822 64.7746C4.27803 73.4342 8.97193 81.2881 15.4525 87.5208L32.3099 69.9929C28.9585 66.7697 26.5311 62.7081 25.2797 58.2298C24.0283 53.7515 23.9985 49.0199 25.1936 44.5262L1.69173 38.2762Z" fill="#EB005A"/>
<path d="M14.7515 86.8333C22.6499 94.7318 32.95 99.7804 44.0314 101.185C55.1128 102.59 66.3467 100.271 75.966 94.5925L63.6044 73.6501C58.6297 76.5864 52.8201 77.7857 47.0894 77.0593C41.3587 76.3329 36.032 73.7221 31.9474 69.6374L14.7515 86.8333Z" fill="#FFE91E"/>
<path d="M74.825 95.2462C83.6231 90.358 90.7548 82.946 95.3004 73.9661C99.8459 64.9862 101.597 54.8503 100.327 44.8659L76.2025 47.9341C76.8592 53.0975 75.9538 58.3392 73.6031 62.9831C71.2523 67.6271 67.5642 71.4602 63.0142 73.9881L74.825 95.2462Z" fill="#FF4144"/>
<path d="M100.447 45.8956C99.1364 33.5674 93.3246 22.1557 84.1245 13.8454C74.9244 5.53511 62.9824 0.910136 50.5848 0.85595L50.4785 25.1744C56.8899 25.2024 63.0657 27.5942 67.8235 31.8919C72.5813 36.1895 75.5868 42.091 76.2646 48.4665L100.447 45.8956Z" fill="#FF7300"/>
</svg>
